<svg xmlns="http://www.w3.org/2000/svg" viewBox="0 0 100 100" width="100" height="100">
  <defs>
    <linearGradient id="waterGrad" x1="0%" y1="0%" x2="100%" y2="100%">
      <stop offset="0%" stop-color="#f59e0b" />
      <stop offset="100%" stop-color="#d97706" />
    </linearGradient>
  </defs>
  <rect width="100" height="100" rx="22" fill="url(#waterGrad)" />
  <!-- Water Droplet + Plant leaf representation -->
  <path d="M50 25c0 0-20 22-20 35 0 11 9 20 20 20s20-9 20-20c0-13-20-35-20-35zm-8 32c-1.5 0-3-1.2-3-3 0-4.5 3.5-8 8-8 1.8 0 3 1.2 3 3s-1.2 3-3 3c-1.8 0-3 1.2-3 2 0 1.8-1.2 3-2 3z" fill="#ffffff" />
</svg>
